<?xml version="1.0" standalone="no"?>
<!DOCTYPE svg PUBLIC "-//W3C//DTD SVG 20010904//EN"
 "http://www.w3.org/TR/2001/REC-SVG-20010904/DTD/svg10.dtd">
<svg version="1.0" xmlns="http://www.w3.org/2000/svg"
 width="493.000000pt" height="493.000000pt" viewBox="0 0 493.000000 493.000000"
 preserveAspectRatio="xMidYMid meet">
<metadata>
Created by potrace 1.14, written by Peter Selinger 2001-2017
</metadata>
<g transform="translate(0.000000,493.000000) scale(0.100000,-0.100000)"
fill="#000000" stroke="none">
<path d="M2285 4890 c-11 -4 -49 -10 -85 -14 -36 -3 -83 -10 -105 -16 -22 -6
-53 -13 -70 -15 -54 -7 -66 -11 -76 -26 -7 -12 -9 -12 -9 1 0 12 -2 12 -9 2
-4 -7 -12 -12 -17 -10 -9 3 -90 -24 -131 -44 -11 -6 -26 -7 -32 -3 -7 4 -10 1
-9 -7 2 -8 -6 -13 -19 -12 -12 0 -20 -2 -18 -6 2 -3 -12 -12 -31 -19 -18 -7
-34 -17 -34 -22 0 -6 -4 -8 -9 -4 -5 3 -12 1 -16 -5 -3 -5 -15 -10 -26 -10
-11 0 -22 -7 -25 -15 -4 -8 -10 -12 -15 -9 -5 3 -9 0 -9 -5 0 -6 -7 -11 -15
-11 -8 0 -15 -3 -15 -7 0 -5 -20 -17 -44 -27 -25 -11 -42 -24 -39 -30 4 -5 0
-7 -8 -4 -16 6 -41 -16 -31 -28 4 -4 2 -4 -4 -1 -10 6 -22 -1 -71 -43 -7 -6
-16 -10 -19 -9 -4 0 -11 -6 -16 -15 -5 -9 -14 -14 -19 -10 -5 3 -8 0 -7 -8 2
-7 -2 -12 -9 -11 -6 2 -15 -6 -18 -17 -4 -11 -10 -18 -15 -15 -4 3 -10 -2 -14
-10 -3 -8 -12 -15 -21 -15 -8 0 -14 -6 -12 -12 1 -7 -4 -12 -10 -11 -7 2 -13
-1 -13 -5 0 -12 -40 -57 -41 -46 0 5 -4 -1 -10 -14 -5 -13 -13 -20 -19 -17 -5
3 -10 -3 -10 -15 0 -12 -4 -19 -9 -15 -5 3 -13 -4 -16 -16 -4 -11 -9 -18 -13
-15 -3 3 -17 -11 -30 -32 -14 -20 -35 -46 -46 -58 -12 -11 -22 -27 -24 -34 -2
-8 -9 -18 -15 -22 -7 -4 -8 -8 -3 -8 6 0 1 -7 -10 -15 -10 -8 -16 -15 -12 -15
5 0 0 -9 -10 -19 -33 -37 -43 -51 -35 -51 4 0 -2 -7 -13 -16 -10 -8 -12 -13
-4 -9 10 4 9 2 -2 -8 -10 -8 -15 -17 -11 -20 3 -4 1 -7 -5 -7 -10 0 -23 -25
-21 -44 0 -5 -4 -12 -11 -16 -6 -4 -12 -15 -14 -24 -1 -10 -9 -22 -17 -27 -12
-7 -12 -9 0 -9 11 0 9 -4 -5 -15 -10 -8 -14 -15 -9 -15 7 0 7 -3 0 -8 -5 -4
-16 -18 -23 -31 -11 -19 -11 -22 0 -16 7 3 5 0 -5 -8 -10 -9 -18 -18 -17 -21
4 -17 -13 -65 -21 -60 -5 3 -9 0 -9 -5 0 -6 6 -11 13 -11 8 -1 7 -5 -4 -13 -9
-7 -15 -20 -13 -29 1 -10 -3 -18 -9 -18 -5 0 -8 -3 -4 -6 3 -3 1 -18 -5 -33
-5 -14 -12 -35 -14 -46 -10 -42 -13 -50 -14 -50 -1 0 -4 -16 -6 -35 -9 -67
-10 -76 -16 -86 -3 -5 -4 -17 -3 -26 2 -10 0 -18 -4 -18 -4 0 -6 -15 -6 -32 1
-18 -4 -36 -9 -40 -8 -5 -8 -8 0 -8 6 0 10 -10 8 -22 -1 -13 -5 -45 -9 -72 -8
-64 -8 -59 -5 -71 2 -11 1 -289 -1 -302 -1 -4 -1 -12 0 -18 8 -40 4 -216 -4
-219 -7 -3 -7 -5 0 -5 6 -1 8 -33 5 -87 -3 -47 -3 -87 -1 -89 9 -9 5 -255 -4
-259 -7 -3 -7 -5 0 -5 6 -1 8 -40 5 -107 -3 -58 -3 -107 -1 -109 9 -9 5 -255
-4 -259 -7 -3 -7 -5 0 -5 6 -1 8 -40 5 -107 -3 -58 -3 -108 -1 -110 3 -2 4
-21 4 -42 -1 -20 -2 -71 -3 -112 -1 -41 -1 -79 0 -85 2 -13 1 -291 -1 -302 -1
-4 -1 -12 1 -18 1 -10 1 -370 -1 -383 -1 -4 -1 -9 0 -12 8 -21 4 -120 -4 -120
-6 0 -6 -3 0 -8 6 -4 10 -14 10 -22 -1 -8 1 -19 4 -25 3 -5 6 -17 8 -25 1 -8
7 -16 12 -18 6 -2 11 -8 11 -14 0 -12 50 -61 50 -50 0 4 4 2 8 -3 13 -19 67
-38 122 -42 30 -2 56 -6 59 -8 2 -3 10 0 18 6 10 9 13 8 13 0 0 -7 5 -9 11 -5
7 4 30 9 53 11 23 2 47 4 54 5 6 1 12 6 12 11 0 5 7 7 15 3 8 -3 15 -1 15 5 0
6 5 7 10 4 6 -3 10 -1 10 4 0 6 3 10 8 9 4 -1 17 3 28 10 12 6 25 8 29 4 5 -4
5 -1 1 6 -5 8 3 16 23 23 18 6 28 16 24 22 -4 6 0 8 10 4 9 -3 16 -3 14 1 -1
4 19 29 46 56 26 27 47 54 47 62 0 8 5 14 10 14 6 0 10 9 10 19 0 11 5 23 10
26 6 4 8 11 4 16 -3 5 0 8 8 7 8 -2 12 4 10 15 -2 9 3 17 9 17 7 0 10 3 7 6
-4 3 0 21 8 40 8 19 12 39 9 44 -4 6 -2 10 3 10 5 0 9 6 9 13 1 30 13 109 18
117 3 5 1 11 -5 15 -6 4 -7 12 -3 18 5 7 8 586 9 1287 1 867 5 1287 12 1313 7
25 7 37 0 37 -7 0 -7 5 1 13 6 8 8 17 4 20 -3 4 -1 7 5 7 6 0 9 7 5 17 -5 12
-3 14 7 8 10 -6 12 -4 7 10 -4 9 -2 24 4 31 6 8 9 14 5 14 -4 0 3 18 14 40 11
22 17 40 13 40 -4 0 2 7 13 16 10 8 14 13 7 9 -14 -7 31 83 71 141 14 21 26
45 26 53 0 8 3 11 7 8 7 -8 39 34 35 46 -1 4 5 7 13 7 8 0 15 7 15 16 0 10 5
14 16 10 8 -3 13 -2 9 3 -6 11 100 122 109 114 3 -3 8 2 12 11 3 9 12 16 20
16 8 0 14 5 14 10 0 6 6 10 13 10 7 0 22 8 33 18 32 29 74 53 83 48 12 -8 33
19 23 28 -4 4 -2 7 3 6 23 -5 45 1 59 16 12 12 16 12 16 2 0 -10 2 -10 9 1 5
8 21 15 37 17 15 2 30 8 34 14 4 6 11 10 16 9 5 -1 11 -1 14 1 10 3 65 12 88
13 12 0 22 4 22 7 0 4 6 7 13 8 6 0 37 2 68 5 30 2 60 7 66 10 7 4 15 3 18 -3
4 -6 12 -7 18 -3 15 10 38 10 55 0 7 -5 12 -3 12 3 0 6 5 8 11 4 6 -3 33 -8
61 -10 27 -2 53 -6 59 -9 11 -7 44 -14 82 -17 15 -1 27 -6 27 -11 0 -5 7 -6
16 -3 10 4 25 -1 36 -11 11 -10 22 -17 24 -15 2 1 16 2 30 2 16 0 23 -4 18
-12 -5 -7 0 -9 14 -6 13 4 23 0 26 -8 3 -8 12 -14 20 -14 19 0 76 -32 76 -43
0 -5 4 -6 9 -2 5 3 17 -5 25 -17 9 -12 16 -17 16 -10 0 8 7 6 19 -5 11 -9 17
-21 14 -26 -3 -6 -1 -7 5 -3 14 8 55 -17 45 -27 -3 -4 -1 -7 5 -7 20 0 72 -52
65 -64 -3 -6 -3 -8 1 -4 9 8 72 -51 68 -64 -1 -5 2 -7 8 -3 5 3 15 -5 22 -19
6 -14 15 -26 20 -26 5 0 6 -4 3 -10 -3 -5 1 -10 10 -10 9 0 15 -5 13 -12 -3
-7 7 -24 21 -38 14 -14 27 -33 29 -40 2 -8 7 -17 11 -20 9 -7 35 -63 33 -73
-1 -4 4 -10 12 -13 8 -3 12 -12 9 -20 -3 -8 1 -14 8 -14 7 0 10 -3 6 -6 -3 -4
1 -23 9 -43 9 -20 17 -43 19 -51 2 -8 4 -15 5 -15 2 0 5 -14 14 -52 2 -12 9
-30 15 -41 7 -13 7 -22 -1 -30 -8 -8 -8 -12 -2 -12 13 0 13 1 17 -158 2 -73 1
-135 -3 -137 -4 -2 -6 -20 -5 -40 0 -19 -3 -35 -7 -35 -4 0 -5 -7 -2 -15 4 -8
2 -15 -3 -15 -5 0 -9 -12 -8 -27 0 -16 -5 -34 -12 -41 -7 -7 -13 -22 -13 -32
0 -10 -7 -31 -15 -46 -8 -16 -15 -39 -15 -52 0 -13 -4 -21 -9 -17 -6 3 -13
-11 -17 -31 -3 -19 -13 -38 -20 -41 -8 -3 -14 -12 -14 -19 0 -8 -7 -17 -16
-21 -13 -5 -13 -7 -2 -14 9 -6 9 -9 1 -9 -7 0 -20 -16 -29 -35 -9 -19 -20 -32
-25 -29 -5 3 -9 0 -9 -5 0 -6 -9 -20 -20 -31 -11 -11 -18 -20 -15 -20 3 0 -3
-9 -12 -19 -9 -11 -21 -17 -27 -14 -6 3 -8 3 -4 -2 4 -4 -9 -24 -30 -43 -20
-20 -36 -40 -34 -45 1 -4 -2 -6 -7 -3 -5 4 -17 -4 -26 -16 -8 -13 -17 -21 -20
-18 -2 3 -13 -2 -23 -11 -10 -8 -26 -18 -35 -22 -9 -3 -17 -11 -17 -17 0 -6
-4 -8 -10 -5 -5 3 -10 1 -10 -4 0 -6 -5 -11 -11 -11 -6 0 -25 -10 -42 -22 -17
-12 -27 -16 -22 -8 5 8 -4 5 -19 -8 -16 -12 -32 -19 -37 -16 -5 3 -9 1 -9 -5
0 -5 -15 -13 -32 -16 -18 -4 -39 -12 -45 -17 -7 -6 -13 -7 -13 -3 0 4 -6 2
-13 -4 -8 -6 -17 -8 -20 -4 -4 3 -13 0 -21 -6 -8 -7 -28 -11 -43 -10 -15 2
-33 0 -40 -4 -25 -16 -231 -28 -249 -15 -6 4 -57 6 -115 4 -84 -2 -113 -8
-149 -26 -25 -12 -48 -27 -51 -32 -3 -5 -9 -9 -13 -9 -18 3 -27 0 -23 -6 2 -5
-4 -16 -15 -25 -10 -10 -18 -16 -18 -13 0 3 -11 -5 -25 -19 -27 -27 -33 -41
-12 -31 6 4 5 1 -4 -7 -13 -11 -28 -36 -34 -60 -2 -5 -3 -9 -5 -10 -14 -18
-18 -169 -6 -228 4 -19 8 -40 8 -47 1 -7 4 -10 8 -8 7 4 35 -65 32 -78 -1 -5
2 -6 8 -2 5 3 10 1 10 -5 0 -6 5 -8 10 -5 6 3 10 1 10 -5 0 -14 39 -54 69 -69
12 -7 19 -16 16 -21 -3 -6 1 -7 9 -4 9 3 16 1 16 -5 0 -6 9 -11 20 -11 11 0
20 -4 20 -8 0 -8 69 -34 95 -36 6 -1 12 -4 15 -8 5 -6 72 -16 175 -24 33 -2
66 -6 73 -9 6 -2 12 -1 12 3 0 4 24 8 53 8 28 1 84 5 122 9 39 4 84 8 100 9
17 1 35 5 42 9 6 4 24 9 40 12 43 6 57 10 71 18 6 5 12 5 12 1 0 -3 7 -1 15 6
8 6 19 9 25 5 5 -3 10 -1 10 5 0 6 4 9 9 6 5 -4 30 3 55 14 26 11 47 19 49 19
13 0 67 25 67 31 0 5 9 7 20 5 11 -2 20 0 20 6 0 5 8 9 19 9 10 0 23 6 29 13
6 7 27 19 47 27 19 7 35 17 35 21 0 4 11 10 25 13 14 4 25 11 25 17 0 6 5 7
10 4 6 -3 10 -1 10 6 0 7 3 10 6 7 3 -3 17 5 31 18 20 19 28 21 35 12 6 -10 8
-8 8 4 0 10 10 23 22 29 13 7 28 17 34 23 6 6 22 18 34 26 12 8 40 32 62 52
22 21 44 35 49 32 5 -3 6 3 2 12 -3 10 -2 15 3 12 5 -3 46 32 92 78 46 46 80
84 76 84 -4 0 5 11 20 25 14 13 26 29 26 35 0 5 8 10 18 10 14 0 15 2 2 10
-13 8 -12 10 3 10 11 0 22 12 28 30 6 17 15 30 21 30 5 0 6 5 3 10 -3 6 -2 10
4 10 6 0 13 11 17 25 3 14 10 22 15 19 5 -3 9 2 9 10 0 9 5 16 11 16 5 0 8 4
5 8 -3 5 3 18 14 29 10 12 16 24 13 27 -4 3 2 13 13 22 10 8 13 12 6 9 -11 -6
-11 -3 0 16 7 13 19 29 25 37 7 7 16 25 19 40 4 15 11 33 17 40 5 7 7 15 4 18
-3 4 1 13 9 21 8 8 12 19 9 24 -4 5 -1 9 5 9 6 0 9 3 7 8 -3 4 3 24 13 45 10
20 13 34 7 30 -8 -5 -8 -2 0 8 7 9 15 26 17 40 3 13 5 26 6 29 2 3 2 8 1 13 0
4 4 7 10 7 5 0 8 3 5 8 -5 9 18 114 29 133 6 8 4 10 -6 4 -12 -8 -12 -6 -1 8
8 9 14 32 15 52 1 19 3 35 6 35 8 0 11 63 11 220 1 111 -4 205 -10 205 -1 0
-4 20 -5 45 -2 25 -4 47 -6 50 -1 3 -3 10 -4 15 -2 6 -4 12 -5 15 -3 10 -11
45 -14 62 -1 10 -5 21 -9 24 -4 4 -7 22 -7 41 0 18 -4 33 -8 33 -4 0 -9 14
-10 32 -2 18 -6 35 -10 38 -4 3 -9 16 -10 30 -2 13 -11 30 -20 38 -12 9 -13
11 -2 6 10 -5 8 1 -5 16 -11 13 -14 20 -7 16 6 -4 1 14 -13 40 -13 25 -22 50
-19 55 3 5 0 9 -5 9 -6 0 -11 7 -11 15 0 8 -5 15 -11 15 -5 0 -8 4 -4 9 3 5 0
15 -7 23 -7 7 -14 20 -16 28 -2 8 -7 17 -10 20 -4 3 -18 26 -31 53 -13 26 -28
47 -33 47 -4 0 -8 7 -8 15 0 8 -4 15 -10 15 -5 0 -10 7 -10 15 0 8 -5 15 -12
15 -6 0 -9 3 -5 6 3 3 -5 18 -19 32 -13 15 -24 30 -24 35 0 4 -6 5 -12 1 -7
-4 -10 -4 -6 1 8 9 -26 58 -79 115 -18 19 -33 38 -33 42 0 4 -7 8 -15 8 -8 0
-15 4 -15 9 0 10 -98 111 -109 111 -3 0 -13 9 -21 20 -8 11 -20 20 -28 20 -7
0 -10 5 -7 10 3 6 -1 10 -9 10 -8 0 -20 8 -25 18 -6 9 -11 13 -11 8 0 -6 -9
-1 -20 10 -26 26 -48 44 -57 47 -5 1 -7 7 -5 12 2 6 0 7 -4 3 -4 -5 -23 4 -42
19 -20 15 -32 21 -28 14 6 -10 4 -10 -12 0 -12 7 -18 17 -16 21 3 4 -4 8 -15
8 -12 0 -21 5 -21 10 0 6 -6 10 -14 10 -8 0 -37 14 -64 31 -27 16 -59 31 -70
32 -12 1 -22 8 -22 15 0 8 -6 12 -15 8 -8 -3 -15 -1 -15 4 0 6 -11 10 -25 10
-14 0 -25 5 -25 11 0 5 -4 7 -10 4 -5 -3 -10 -1 -10 6 0 7 -3 10 -6 7 -3 -3
-29 3 -57 14 -29 11 -64 20 -79 21 -16 0 -28 4 -28 9 0 4 -11 8 -25 8 -14 0
-25 4 -25 8 0 5 -14 7 -30 4 -17 -2 -37 1 -45 8 -12 10 -15 10 -15 -1 0 -12
-2 -12 -9 0 -5 7 -13 11 -19 7 -6 -3 -13 -2 -17 4 -3 5 -35 10 -70 10 -35 0
-66 4 -69 8 -4 7 -51 8 -66 2 -3 -1 -9 -1 -15 0 -8 2 -146 1 -220 -1 -5 0 -19
1 -30 4 -11 3 -29 1 -40 -3z"/>
</g>
</svg>
